<svg width="50" height="48" viewBox="0 0 83 80" fill="none" xmlns="http://www.w3.org/2000/svg">
<path d="M25.1515 70.0089C23.6455 72.6812 24.5819 76.1086 27.4369 77.2302C32.49 79.2153 37.9132 80.1582 43.378 79.9784C50.7005 79.7374 57.8161 77.49 63.9486 73.4814C70.0811 69.4727 74.9949 63.8567 78.1537 57.2462C81.3125 50.6357 82.5952 43.2846 81.8616 35.995C81.128 28.7053 78.4064 21.7572 73.9938 15.9086C69.5812 10.06 63.647 5.5357 56.8388 2.82927C50.0305 0.122842 42.6098 -0.661733 35.3861 0.561151C29.9951 1.47378 24.8684 3.47832 20.3122 6.43039C17.7379 8.09832 17.5032 11.6436 19.5114 13.9622C21.5196 16.2809 25.0089 16.4772 27.6685 14.949C30.6183 13.2541 33.8572 12.0861 37.2402 11.5134C42.4578 10.6301 47.8178 11.1968 52.7354 13.1517C57.653 15.1065 61.9392 18.3744 65.1265 22.5988C68.3137 26.8232 70.2795 31.8419 70.8093 37.1072C71.3392 42.3725 70.4127 47.6821 68.1311 52.4569C65.8495 57.2317 62.3003 61.2881 57.8708 64.1835C53.4413 67.079 48.3017 68.7023 43.0127 68.8763C39.5834 68.9891 36.1768 68.4899 32.9484 67.4167C30.0376 66.4491 26.6574 67.3366 25.1515 70.0089Z" fill="#000000"/>
<path d="M20.1523 66.5791C18.2012 68.946 14.6664 69.306 12.5924 67.0461C8.48662 62.5723 5.43617 57.2031 3.70197 51.3332C1.96777 45.4633 1.61064 39.2985 2.62594 33.3117C3.13882 30.2875 6.30173 28.6688 9.22586 29.5953C12.15 30.5219 13.7112 33.6486 13.3605 36.6959C12.9185 40.5352 13.2492 44.4436 14.3549 48.186C15.4605 51.9283 17.3069 55.3889 19.7643 58.3717C21.7148 60.7391 22.1034 64.2122 20.1523 66.5791Z" fill="#000000"/>
<path d="M13.849 19.1529C13.849 22.9772 10.7488 26.0774 6.92449 26.0774C3.1002 26.0774 0 22.9772 0 19.1529C0 15.3286 3.1002 12.2284 6.92449 12.2284C10.7488 12.2284 13.849 15.3286 13.849 19.1529Z" fill="#000000"/>
</svg>
